<svg xmlns="http://www.w3.org/2000/svg" xmlns:xlink="http://www.w3.org/1999/xlink" width="534.402" height="303.63" viewBox="0 0 534.402 303.63"><defs><style>.a,.i{fill:#cff5f1;}.a{opacity:0.998;}.b{fill:#fcfcfc;}.c{fill:#a0d8eb;}.d{fill:#218E89;}.e{fill:#959595;}.f,.h,.l,.n{fill:none;}.f,.h,.l{stroke:#11205e;}.f,.l{stroke-width:2px;}.g{fill:url(#c);}.h,.l{stroke-linecap:round;stroke-linejoin:round;}.h{stroke-width:4px;}.j,.k{fill:#505050;font-family:Lato-Bold, Lato;font-weight:700;}.j{font-size:17px;}.k{font-size:16px;}.m{stroke:none;}.o{filter:url(#j);}.p{filter:url(#h);}.q{filter:url(#f);}.r{filter:url(#d);}.s{filter:url(#a);}</style><filter id="a" x="45.413" y="0" width="197.472" height="245.525" filterUnits="userSpaceOnUse"><feOffset dy="2" input="SourceAlpha"/><feGaussianBlur stdDeviation="12" result="b"/><feFlood flood-opacity="0.102"/><feComposite operator="in" in2="b"/><feComposite in="SourceGraphic"/></filter><linearGradient id="c" x1="0.5" x2="0.5" y2="1" gradientUnits="objectBoundingBox"><stop offset="0" stop-color="#218E89" stop-opacity="0"/><stop offset="1" stop-color="#218E89" stop-opacity="0.341"/></linearGradient><filter id="d" x="345.402" y="1.149" width="110" height="73" filterUnits="userSpaceOnUse"><feOffset dy="4" input="SourceAlpha"/><feGaussianBlur stdDeviation="5" result="e"/><feFlood flood-color="#218E89" flood-opacity="0.2"/><feComposite operator="in" in2="e"/><feComposite in="SourceGraphic"/></filter><filter id="f" x="345.402" y="60.149" width="119" height="73" filterUnits="userSpaceOnUse"><feOffset dy="4" input="SourceAlpha"/><feGaussianBlur stdDeviation="5" result="g"/><feFlood flood-color="#218E89" flood-opacity="0.2"/><feComposite operator="in" in2="g"/><feComposite in="SourceGraphic"/></filter><filter id="h" x="345.402" y="119.149" width="189" height="72" filterUnits="userSpaceOnUse"><feOffset dy="4" input="SourceAlpha"/><feGaussianBlur stdDeviation="5" result="i"/><feFlood flood-color="#218E89" flood-opacity="0.2"/><feComposite operator="in" in2="i"/><feComposite in="SourceGraphic"/></filter><filter id="j" x="345.402" y="177.149" width="110" height="73" filterUnits="userSpaceOnUse"><feOffset dy="4" input="SourceAlpha"/><feGaussianBlur stdDeviation="5" result="k"/><feFlood flood-color="#218E89" flood-opacity="0.2"/><feComposite operator="in" in2="k"/><feComposite in="SourceGraphic"/></filter></defs><g transform="translate(0 10.285)"><g transform="translate(0 0)"><g transform="translate(0)"><g transform="translate(0)"><path class="a" d="M136.729,192.87c46.308.079,83.784-37.187,83.705-83.235S134.824.079,88.516,0-.079,114.993,0,161.041,90.421,192.791,136.729,192.87Z" transform="matrix(0.602, 0.799, -0.799, 0.602, 155.661, 0)"/><g transform="translate(81.413 23.715)"><g class="s" transform="matrix(1, 0, 0, 1, -81.41, -34)"><path class="b" d="M0,0H125.472V173.525H0Z" transform="translate(81.41 34)"/></g><rect class="c" width="125.472" height="9.344" transform="translate(0 0)"/><rect class="d" width="26.696" height="3.337" rx="1.669" transform="translate(12.013 16.685)"/><rect class="d" width="26.696" height="3.337" rx="1.669" transform="translate(12.013 42.047)"/><rect class="d" width="40.712" height="4.004" rx="2.002" transform="translate(12.013 68.076)"/><rect class="e" width="78.754" height="1.335" rx="0.667" transform="translate(12.013 26.696)"/><rect class="e" width="78.754" height="1.335" rx="0.667" transform="translate(12.013 52.058)"/><rect class="e" width="25.361" height="1.335" rx="0.667" transform="translate(12.013 60.735)"/><rect class="e" width="25.361" height="1.335" rx="0.667" transform="translate(12.013 78.755)"/><rect class="e" width="44.049" height="2.67" rx="1.335" transform="translate(12.013 86.096)"/><rect class="e" width="44.049" height="2.002" rx="1.001" transform="translate(12.013 94.773)"/><rect class="e" width="44.049" height="1.335" rx="0.667" transform="translate(12.013 103.449)"/><rect class="e" width="100.111" height="2.002" rx="1.001" transform="translate(12.013 143.492)"/><rect class="e" width="100.111" height="1.335" rx="0.667" transform="translate(12.013 152.169)"/><rect class="d" width="100.111" height="1.335" rx="0.667" transform="translate(12.013 160.845)"/><rect class="d" width="100.111" height="1.335" rx="0.667" transform="translate(12.013 135.485)"/><rect class="e" width="100.111" height="2.67" transform="translate(12.013 125.474)"/><rect class="e" width="22.692" height="1.335" rx="0.667" transform="translate(93.437 103.449)"/><rect class="e" width="35.372" height="3.337" rx="1.669" transform="translate(80.756 113.46)"/><rect class="d" width="22.692" height="3.337" rx="1.669" transform="translate(93.437 94.773)"/><rect class="e" width="22.692" height="4.004" rx="2.002" transform="translate(93.437 84.761)"/><rect class="e" width="25.361" height="1.335" rx="0.667" transform="translate(90.767 60.735)"/><rect class="e" width="24.694" height="1.335" rx="0.667" transform="translate(52.058 60.735)"/><rect class="d" width="12.681" height="3.337" rx="1.669" transform="translate(46.051 16.685)"/><rect class="d" width="12.681" height="3.337" rx="1.669" transform="translate(46.051 42.047)"/></g></g><g transform="translate(69.413 12.681)"><g transform="translate(1.549 156.937)"><line class="f" x2="146.829" transform="translate(0 30.033)"/><rect class="g" width="146.829" height="29.366"/></g><path class="h" d="M15102,1640.653v-15.291h15.291" transform="translate(-15101.999 -1625.362)"/><path class="h" d="M15117.29,1640.653v-15.291H15102" transform="translate(-14967.534 -1625.362)"/><path class="h" d="M15117.29,1625.362v15.291H15102" transform="translate(-14967.534 -1443.101)"/><path class="h" d="M15102,1625.362v15.291h15.291" transform="translate(-15101.999 -1443.101)"/></g><g transform="translate(360.335 1.677)"><g transform="translate(0 0)"><g class="r" transform="matrix(1, 0, 0, 1, -360.33, -11.96)"><rect class="i" width="80" height="43" rx="6" transform="translate(360.4 12.15)"/></g><text class="j" transform="translate(22.067 28.187)"><tspan x="0" y="0">Date</tspan></text></g><g transform="translate(0 59.426)"><g class="q" transform="matrix(1, 0, 0, 1, -360.33, -71.39)"><rect class="i" width="89" height="43" rx="6" transform="translate(360.4 71.15)"/></g><text class="k" transform="translate(22.067 26.762)"><tspan x="0" y="0">Name</tspan></text></g><g transform="translate(0 117.909)"><g class="p" transform="matrix(1, 0, 0, 1, -360.33, -129.87)"><rect class="i" width="159" height="42" rx="6" transform="translate(360.4 130.15)"/></g><text class="j" transform="translate(22.067 27.279)"><tspan x="0" y="0">Phone Number</tspan></text></g><g transform="translate(0 176.391)"><g class="o" transform="matrix(1, 0, 0, 1, -360.33, -188.35)"><rect class="i" width="80" height="43" rx="6" transform="translate(360.4 188.15)"/></g><text class="j" transform="translate(22.067 27.796)"><tspan x="0" y="0">Total</tspan></text></g></g></g><g transform="translate(107.164 22.024)"><g transform="translate(95.345 97.767)"><path class="l" d="M34.531-35.512H64.69v23.7l114.016-.043" transform="translate(-34.531 35.512)"/><g class="f" transform="translate(143.414 20.364)"><circle class="m" cx="3.337" cy="3.337" r="3.337"/><circle class="n" cx="3.337" cy="3.337" r="2.337"/></g></g><g transform="translate(90.533 163.342)"><path class="l" d="M27.321-24.259H133.337v16.19h42.877" transform="translate(-27.321 24.259)"/><g class="f" transform="translate(148.226 12.853)"><circle class="m" cx="3.337" cy="3.337" r="3.337"/><circle class="n" cx="3.337" cy="3.337" r="2.337"/></g></g><g transform="translate(0)"><g class="f" transform="translate(238.762)"><circle class="m" cx="3.337" cy="3.337" r="3.337"/><circle class="n" cx="3.337" cy="3.337" r="2.337"/></g><path class="l" d="M809.543,500.827V488.08h239.121" transform="translate(-809.543 -484.743)"/></g><g transform="translate(39.347 45.635)"><g class="f" transform="translate(199.584 13.163)"><circle class="m" cx="3.337" cy="3.337" r="3.337"/><circle class="n" cx="3.337" cy="3.337" r="2.337"/></g><path class="l" d="M832.932,482.457h104.95v16.5h94.824" transform="translate(-832.932 -482.457)"/></g></g></g></g></svg>