<svg width="335" height="443" viewBox="0 0 335 443" fill="none" xmlns="http://www.w3.org/2000/svg">
<path d="M71 392H323C329.627 392 335 386.627 335 380V119.434C335 119.157 334.885 118.893 334.683 118.704L257.288 46.2699C257.103 46.0965 256.859 46 256.605 46H71C64.3726 46 59 51.3726 59 58V380C59 386.627 64.3726 392 71 392Z" fill="white"/>
<path d="M333.151 117.27L258.683 47.5754C258.044 46.9775 257 47.4305 257 48.3055V87C257 104.673 271.327 119 289 119H332.468C333.375 119 333.814 117.89 333.151 117.27Z" fill="#FAFAFA"/>
<rect x="97" y="67" width="120" height="8" rx="4" fill="#FBFBFB"/>
<rect x="97" y="157" width="190" height="8" rx="4" fill="#FBFBFB"/>
<rect x="97" y="175" width="84" height="8" rx="4" fill="#FBFBFB"/>
<rect x="97" y="193" width="142" height="8" rx="4" fill="#FBFBFB"/>
<rect x="97" y="242" width="107" height="8" rx="4" fill="#FBFBFB"/>
<rect x="97" y="267" width="107" height="8" rx="4" fill="#FBFBFB"/>
<rect x="97" y="292" width="107" height="8" rx="4" fill="#FBFBFB"/>
<rect x="97" y="345" width="107" height="8" rx="4" fill="#FBFBFB"/>
<rect x="232" y="242" width="70" height="8" rx="4" fill="#FBFBFB"/>
<rect x="232" y="267" width="70" height="8" rx="4" fill="#FBFBFB"/>
<rect x="232" y="292" width="70" height="8" rx="4" fill="#FBFBFB"/>
<rect x="133" y="95" width="55" height="8" rx="4" fill="#FBFBFB"/>
<rect x="113.5" y="84.5" width="90" height="29" rx="2.5" stroke="#D2A1EA" stroke-width="3"/>
<rect x="230" width="79" height="22" rx="11" fill="#D2A1EA"/>
<rect y="421" width="116" height="22" rx="11" fill="#F2BD8C"/>
<rect y="130" width="90" height="22" rx="11" fill="#8DD9BD"/>
<rect x="220.5" y="231.5" width="90" height="29" rx="2.5" stroke="#8DD9BD" stroke-width="3"/>
<rect x="79.5" y="333.5" width="139" height="31" rx="2.5" stroke="#F2BD8C" stroke-width="3"/>
<path d="M260.469 15C262.906 15 264.316 13.4883 264.316 10.9883C264.316 8.5 262.906 7 260.551 7H257.879V15H260.469ZM259.086 13.9453V8.05469H260.477C262.227 8.05469 263.129 9.10156 263.129 10.9883C263.129 12.8828 262.227 13.9453 260.402 13.9453H259.086ZM267.47 15.1328C268.462 15.1328 269.021 14.6289 269.243 14.1797H269.29V15H270.431V11.0156C270.431 9.26953 269.056 8.92188 268.103 8.92188C267.017 8.92188 266.017 9.35937 265.626 10.4531L266.724 10.7031C266.896 10.2773 267.333 9.86719 268.118 9.86719C268.872 9.86719 269.259 10.2617 269.259 10.9414V10.9687C269.259 11.3945 268.821 11.3867 267.743 11.5117C266.606 11.6445 265.442 11.9414 265.442 13.3047C265.442 14.4844 266.329 15.1328 267.47 15.1328ZM267.724 14.1953C267.063 14.1953 266.587 13.8984 266.587 13.3203C266.587 12.6953 267.142 12.4727 267.817 12.3828C268.196 12.332 269.095 12.2305 269.263 12.0625V12.8359C269.263 13.5469 268.696 14.1953 267.724 14.1953ZM274.787 9H273.557V7.5625H272.389V9H271.51V9.9375H272.389V13.4805C272.385 14.5703 273.217 15.0977 274.139 15.0781C274.51 15.0742 274.76 15.0039 274.896 14.9531L274.686 13.9883C274.607 14.0039 274.463 14.0391 274.275 14.0391C273.896 14.0391 273.557 13.9141 273.557 13.2383V9.9375H274.787V9ZM278.601 15.1211C279.909 15.1211 280.835 14.4766 281.101 13.5L279.995 13.3008C279.784 13.8672 279.276 14.1562 278.612 14.1562C277.612 14.1562 276.94 13.5078 276.909 12.3516H281.175V11.9375C281.175 9.76953 279.878 8.92188 278.519 8.92188C276.847 8.92188 275.745 10.1953 275.745 12.0391C275.745 13.9023 276.831 15.1211 278.601 15.1211ZM276.913 11.4766C276.96 10.625 277.577 9.88672 278.526 9.88672C279.433 9.88672 280.026 10.5586 280.03 11.4766H276.913Z" fill="white"/>
<path d="M25.5547 436L26.2891 433.883H29.4141L30.1445 436H31.4258L28.5469 428H27.1523L24.2734 436H25.5547ZM26.6406 432.867L27.8203 429.453H27.8828L29.0625 432.867H26.6406ZM32.5811 436H35.6475C37.5068 436 38.3467 435.074 38.3467 433.848C38.3467 432.609 37.4795 431.91 36.6865 431.867V431.789C37.4209 431.602 38.0342 431.102 38.0342 430.102C38.0342 428.918 37.2139 428 35.5107 428H32.5811V436ZM33.7881 434.965V432.402H35.5732C36.542 432.402 37.1475 433.027 37.1475 433.789C37.1475 434.461 36.6904 434.965 35.5303 434.965H33.7881ZM33.7881 431.461V429.027H35.4365C36.3936 429.027 36.8506 429.531 36.8506 430.195C36.8506 430.969 36.2178 431.461 35.4053 431.461H33.7881ZM41.3447 436H42.5635L44.2471 430.008H44.3096L45.9932 436H47.208L49.4307 428H48.1572L46.6025 434.199H46.5283L44.9072 428H43.6494L42.0283 434.195H41.9541L40.3955 428H39.126L41.3447 436ZM54.5166 432.437C54.5166 431.48 55.1025 430.934 55.915 430.934C56.708 430.934 57.1885 431.453 57.1885 432.324V436H58.3564V432.184C58.3564 430.699 57.54 429.922 56.3135 429.922C55.4111 429.922 54.8213 430.34 54.5439 430.977H54.4697V430H53.3486V436H54.5166V432.437ZM63.7236 433.512C63.7275 434.531 62.9697 435.016 62.3135 435.016C61.5908 435.016 61.0908 434.492 61.0908 433.676V430H59.9229V433.816C59.9229 435.305 60.7393 436.078 61.8916 436.078C62.7939 436.078 63.4072 435.602 63.6846 434.961H63.7471V436H64.8955V430H63.7236V433.512ZM66.4648 436H67.6328V432.301C67.6328 431.492 68.1992 430.93 68.8633 430.93C69.5117 430.93 69.9609 431.359 69.9609 432.012V436H71.125V432.176C71.125 431.453 71.5664 430.93 72.3281 430.93C72.9453 430.93 73.4531 431.273 73.4531 432.086V436H74.6211V431.977C74.6211 430.605 73.8555 429.922 72.7695 429.922C71.9062 429.922 71.2578 430.336 70.9688 430.977H70.9063C70.6445 430.32 70.0937 429.922 69.293 429.922C68.5 429.922 67.9102 430.316 67.6602 430.977H67.5859V430H66.4648V436ZM76.2803 436H77.4209V435.066H77.5186C77.7295 435.449 78.1592 436.117 79.2529 436.117C80.7061 436.117 81.7607 434.953 81.7607 433.012C81.7607 431.066 80.6904 429.922 79.2412 429.922C78.1279 429.922 77.7256 430.602 77.5186 430.973H77.4482V428H76.2803V436ZM77.4248 433C77.4248 431.746 77.9717 430.914 78.9912 430.914C80.0498 430.914 80.5811 431.809 80.5811 433C80.5811 434.203 80.0342 435.121 78.9912 435.121C77.9873 435.121 77.4248 434.262 77.4248 433ZM85.6582 436.121C86.9668 436.121 87.8926 435.477 88.1582 434.5L87.0527 434.301C86.8418 434.867 86.334 435.156 85.6699 435.156C84.6699 435.156 83.998 434.508 83.9668 433.352H88.2324V432.937C88.2324 430.77 86.9355 429.922 85.5762 429.922C83.9043 429.922 82.8027 431.195 82.8027 433.039C82.8027 434.902 83.8887 436.121 85.6582 436.121ZM83.9707 432.477C84.0176 431.625 84.6348 430.887 85.584 430.887C86.4902 430.887 87.084 431.559 87.0879 432.477H83.9707ZM89.5283 436H90.6963V432.336C90.6963 431.551 91.3018 430.984 92.1299 430.984C92.3721 430.984 92.6455 431.027 92.7393 431.055V429.937C92.6221 429.922 92.3916 429.91 92.2432 429.91C91.54 429.91 90.9385 430.309 90.7197 430.953H90.6572V430H89.5283V436Z" fill="white"/>
<path d="M17.8789 145H19.0859V141.512H22.4844V140.477H19.0859V138.039H22.8398V137H17.8789V145ZM24.2305 145H25.3984V139H24.2305V145ZM24.8203 138.074C25.2227 138.074 25.5586 137.762 25.5586 137.379C25.5586 136.996 25.2227 136.68 24.8203 136.68C24.4141 136.68 24.082 136.996 24.082 137.379C24.082 137.762 24.4141 138.074 24.8203 138.074ZM26.9697 145H28.1377V141.336C28.1377 140.551 28.7432 139.984 29.5713 139.984C29.8135 139.984 30.0869 140.027 30.1807 140.055V138.937C30.0635 138.922 29.833 138.91 29.6846 138.91C28.9814 138.91 28.3799 139.309 28.1611 139.953H28.0986V139H26.9697V145ZM35.6875 140.465C35.4453 139.531 34.7148 138.922 33.418 138.922C32.0625 138.922 31.1016 139.637 31.1016 140.699C31.1016 141.551 31.6172 142.117 32.7422 142.367L33.7578 142.59C34.3359 142.719 34.6055 142.977 34.6055 143.352C34.6055 143.816 34.1094 144.18 33.3438 144.18C32.6445 144.18 32.1953 143.879 32.0547 143.289L30.9258 143.461C31.1211 144.523 32.0039 145.121 33.3516 145.121C34.8008 145.121 35.8047 144.352 35.8047 143.266C35.8047 142.418 35.2656 141.895 34.1641 141.641L33.2109 141.422C32.5508 141.266 32.2656 141.043 32.2695 140.637C32.2656 140.176 32.7656 139.848 33.4297 139.848C34.1563 139.848 34.4922 140.25 34.6289 140.652L35.6875 140.465ZM39.8896 139H38.6592V137.562H37.4912V139H36.6123V139.937H37.4912V143.48C37.4873 144.57 38.3193 145.098 39.2412 145.078C39.6123 145.074 39.8623 145.004 39.999 144.953L39.7881 143.988C39.71 144.004 39.5654 144.039 39.3779 144.039C38.999 144.039 38.6592 143.914 38.6592 143.238V139.937H39.8896V139ZM45.2607 141.437C45.2607 140.48 45.8467 139.934 46.6592 139.934C47.4521 139.934 47.9326 140.453 47.9326 141.324V145H49.1006V141.184C49.1006 139.699 48.2842 138.922 47.0576 138.922C46.1553 138.922 45.5654 139.34 45.2881 139.977H45.2139V139H44.0928V145H45.2607V141.437ZM52.4131 145.133C53.4053 145.133 53.9639 144.629 54.1865 144.18H54.2334V145H55.374V141.016C55.374 139.27 53.999 138.922 53.0459 138.922C51.96 138.922 50.96 139.359 50.5693 140.453L51.667 140.703C51.8389 140.277 52.2764 139.867 53.0615 139.867C53.8154 139.867 54.2021 140.262 54.2021 140.941V140.969C54.2021 141.395 53.7646 141.387 52.6865 141.512C51.5498 141.645 50.3857 141.941 50.3857 143.305C50.3857 144.484 51.2725 145.133 52.4131 145.133ZM52.667 144.195C52.0068 144.195 51.5303 143.898 51.5303 143.32C51.5303 142.695 52.085 142.473 52.7607 142.383C53.1396 142.332 54.0381 142.23 54.2061 142.062V142.836C54.2061 143.547 53.6396 144.195 52.667 144.195ZM56.9297 145H58.0977V141.301C58.0977 140.492 58.6641 139.93 59.3281 139.93C59.9766 139.93 60.4258 140.359 60.4258 141.012V145H61.5898V141.176C61.5898 140.453 62.0312 139.93 62.793 139.93C63.4102 139.93 63.918 140.273 63.918 141.086V145H65.0859V140.977C65.0859 139.605 64.3203 138.922 63.2344 138.922C62.3711 138.922 61.7227 139.336 61.4336 139.977H61.3711C61.1094 139.32 60.5586 138.922 59.7578 138.922C58.9648 138.922 58.375 139.316 58.125 139.977H58.0508V139H56.9297V145ZM69.2373 145.121C70.5459 145.121 71.4717 144.477 71.7373 143.5L70.6318 143.301C70.4209 143.867 69.9131 144.156 69.249 144.156C68.249 144.156 67.5771 143.508 67.5459 142.352H71.8115V141.937C71.8115 139.77 70.5146 138.922 69.1553 138.922C67.4834 138.922 66.3818 140.195 66.3818 142.039C66.3818 143.902 67.4678 145.121 69.2373 145.121ZM67.5498 141.477C67.5967 140.625 68.2139 139.887 69.1631 139.887C70.0693 139.887 70.6631 140.559 70.667 141.477H67.5498Z" fill="white"/>
<path d="M155 85L214.8 12.4557C215.56 11.5339 216.692 11 217.887 11L230 11" stroke="#D2A1EA" stroke-width="2"/>
<path d="M187 366L154.957 429.795C154.278 431.147 152.895 432 151.383 432L116 432" stroke="#F2BD8C" stroke-width="2"/>
<path d="M90 141.5L112.5 141.5L220 247.5" stroke="#8DD9BD" stroke-width="2"/>
</svg>
