<?xml version="1.0" encoding="utf-8"?>
<svg viewBox="0 0 500 500" xmlns="http://www.w3.org/2000/svg">
  <defs>
    <linearGradient gradientUnits="userSpaceOnUse" x1="177.769" y1="-1.577" x2="177.769" y2="501.777" id="gradient-0" gradientTransform="matrix(0.549324, -0.835611, 0.543163, 0.35707, -88.277006, 191.548902)">
      <stop offset="0" style="stop-color: rgb(8, 26, 72);"/>
      <stop offset="0.258" style="stop-color: rgb(14, 30, 107);"/>
      <stop offset="0.655" style="stop-color: rgb(25, 103, 112);"/>
      <stop offset="1" style="stop-color: rgb(44, 204, 177);"/>
    </linearGradient>
  </defs>
  <path d="M -0.309 2.049 C -0.892 1.404 102.245 0.573 195.257 0.692 C 277.579 0.797 355.989 -4.069 356.332 0.142 C 356.908 7.206 350.927 32.663 344.923 41.979 C 335.4 56.756 329.035 68.483 309.672 81.405 C 297.594 89.465 279.913 96.904 279.913 96.904 C 279.913 96.904 223.175 120.698 196.839 144.02 C 193.033 147.391 152.87 177.088 147.804 206.688 C 143.186 233.671 139.758 263.483 140.422 281.652 C 141.761 318.29 137.561 337.965 136.703 346.749 C 135.457 359.507 127.924 374.949 124.303 381.466 C 106.734 413.09 87.859 434.868 60.446 456.482 C 56.484 459.606 35.004 482.722 25.108 488.1 C 16.079 493.007 7.621 502.12 -0.835 501.767" style="fill: url(#gradient-0); stroke: rgb(255, 255, 255); stroke-opacity: 0;"/>
</svg>